<svg width="109" height="106" viewBox="0 0 109 106" fill="none" xmlns="http://www.w3.org/2000/svg">
<g filter="url(#filter0_i_31_35)">
<path d="M64.738 96.3691C64.6711 96.3691 64.6124 96.425 64.6124 96.4886C64.6124 96.6158 64.8628 96.6158 64.8628 96.4886C64.8628 96.425 64.8049 96.3691 64.738 96.3691Z" fill="#929982"/>
<path d="M54.8504 41.0748C55.1402 40.0424 55.3557 39.258 55.52 38.6637C57.5798 38.3316 59.2153 36.8115 59.5349 34.8244L60.457 29.323C60.7766 27.3641 59.8997 25.4837 58.3155 24.3735C58.7539 22.8818 58.985 21.3398 58.9998 19.7774V19.7138C58.8884 14.3333 56.4347 9.34068 52.2117 5.83351C52.2043 5.07667 51.8253 4.36294 51.1929 3.9029C47.7346 1.38577 43.4373 0 39.0873 0H37.2362C33.63 0 30.3062 1.58363 27.3843 3.47891C26.6108 3.28104 25.7711 3.42944 25.1239 3.9029C20.5806 7.21221 17.4507 13.5686 17.3318 19.7767C17.3467 21.3321 17.577 22.8599 18.0236 24.3587C16.4104 25.483 15.5551 27.3712 15.8672 29.3294L16.7819 34.8307C17.1238 36.825 18.76 38.3379 20.8117 38.663C20.9678 39.2573 21.1833 40.0417 21.4731 41.0741C22.2466 43.8605 23.9193 46.3423 26.2095 48.1803V53.392L10.7964 57.5705C4.52839 58.8439 0 64.2174 0 70.3837V78.3457C0 82.5242 3.56906 85.9254 7.96295 85.9254H58.7985C59.222 85.7063 59.6612 85.5084 60.1145 85.331V80.9752H7.96295C6.43887 80.9752 5.2046 79.7943 5.2046 78.345V70.3837C5.2046 66.5232 8.03726 63.1644 11.9407 62.4005C12.0002 62.3864 12.067 62.3723 12.1265 62.3581L24.1051 59.1124L25.0718 60.2579C28.2694 64.0619 33.0422 66.2398 38.1658 66.2398C43.2887 66.2398 48.0623 64.0619 51.2598 60.2579L52.2192 59.1124L60.1078 61.248V56.0999L50.1147 53.399V48.1803C52.4042 46.3423 54.0776 43.8605 54.8504 41.0748ZM38.1658 62.7044C34.1806 62.7044 30.4778 61.0148 27.987 58.0588L28.1356 58.0164C30.0468 57.6065 31.4149 55.9727 31.4149 54.0781V51.1723C33.5416 52.2189 35.8541 52.7418 38.1658 52.7418C40.4776 52.7418 42.7908 52.2189 44.9094 51.1723V54.0781C44.9094 55.9734 46.2774 57.6065 48.1812 58.0164L48.3447 58.0588C45.8538 61.0148 42.1436 62.7044 38.1658 62.7044ZM49.8242 39.8163C49.1554 42.2203 47.4448 44.2781 45.1323 45.4519L42.634 46.7246C39.8311 48.1528 36.4924 48.1457 33.6969 46.7246L31.1912 45.4519C28.8787 44.2781 27.1763 42.2203 26.5068 39.8092C25.5697 36.4504 25.4285 35.871 25.4137 35.8066C25.1907 34.6329 24.1125 33.7771 22.856 33.7771H21.8743L21.0116 28.5655C20.9893 28.4383 21.0859 28.3605 21.1528 28.3252C21.1751 28.3323 21.2048 28.3323 21.2345 28.3323C21.9709 28.3323 22.6694 27.9153 22.9592 27.2221L26.8924 17.839C29.4873 18.051 32.097 17.2094 34.0157 15.4844L36.2316 16.9267C40.0533 19.4297 44.708 20.3208 49.1985 19.458L53.0574 26.7338V26.7409L53.0722 26.7691C53.1391 26.8963 53.2208 27.0094 53.3174 27.1083C53.7559 27.6956 54.3808 28.1266 55.1165 28.3033C55.2056 28.3245 55.3394 28.4164 55.3171 28.5506L54.4395 33.7764H53.4727C52.2162 33.7764 51.1454 34.5968 50.9225 35.7706C50.9024 35.8702 50.7538 36.4504 49.8242 39.8163Z" fill="#929982"/>
<path d="M76.461 92.0825H103.679C104.5 92.0825 105.166 91.4494 105.166 90.6685V59.6742C105.166 58.8927 104.5 58.2602 103.679 58.2602H91.4722V65.2971H83.0455V58.2602H70.8388C70.0474 58.2602 69.4061 58.8496 69.3608 59.5915V85.336C72.6081 86.5508 75.1807 88.9958 76.461 92.0825Z" fill="#929982"/>
<path d="M106.865 94.5672H74.5334C73.7309 90.8614 70.6545 87.9365 66.7585 87.1733V45.2816C66.7585 44.2202 65.8541 43.3602 64.738 43.3602H60.1063C58.9902 43.3602 58.0859 44.2202 58.0859 45.2816C58.0859 46.343 58.9902 47.203 60.1063 47.203H62.7175V87.1733C57.6497 88.1662 53.9691 92.8161 54.8742 98.0828C55.5542 102.041 58.9003 105.223 63.0623 105.87C68.6006 106.73 73.4901 103.229 74.5342 98.4107H106.98C108.131 98.4107 109.058 97.4942 108.997 96.3861C108.939 95.3466 107.959 94.5672 106.865 94.5672ZM64.738 99.0828C63.234 99.0828 62.0101 97.9196 62.0101 96.4886C62.0101 95.0576 63.2332 93.8944 64.738 93.8944C66.2428 93.8944 67.4659 95.0576 67.4659 96.4886C67.4659 97.9196 66.242 99.0828 64.738 99.0828Z" fill="#929982"/>
</g>
<defs>
<filter id="filter0_i_31_35" x="0" y="0" width="109" height="110" filterUnits="userSpaceOnUse" color-interpolation-filters="sRGB">
<feFlood flood-opacity="0" result="BackgroundImageFix"/>
<feBlend mode="normal" in="SourceGraphic" in2="BackgroundImageFix" result="shape"/>
<feColorMatrix in="SourceAlpha" type="matrix" values="0 0 0 0 0 0 0 0 0 0 0 0 0 0 0 0 0 0 127 0" result="hardAlpha"/>
<feOffset dy="4"/>
<feGaussianBlur stdDeviation="2"/>
<feComposite in2="hardAlpha" operator="arithmetic" k2="-1" k3="1"/>
<feColorMatrix type="matrix" values="0 0 0 0 0 0 0 0 0 0 0 0 0 0 0 0 0 0 0.25 0"/>
<feBlend mode="normal" in2="shape" result="effect1_innerShadow_31_35"/>
</filter>
</defs>
</svg>
